<svg width="75" height="19" viewBox="0 0 75 19" fill="none" xmlns="http://www.w3.org/2000/svg">
<path d="M3.52812 12.9604L4.24812 11.0404H11.6881L12.4081 12.9604H3.52812ZM7.92012 4.99235L5.08812 11.6644L4.89612 12.0964L2.40012 18.0004H0.120117L7.92012 0.360352L15.7201 18.0004H13.4401L10.9921 12.2404L10.8001 11.7604L7.92012 4.99235Z" fill="#F5F5F5"/>
<path d="M17.7639 1.20035H19.8039V18.0004H17.7639V1.20035ZM22.8039 18.0004H18.8919V15.9604H22.8039C23.7479 15.9604 24.6119 15.8164 25.3959 15.5284C26.1799 15.2244 26.8519 14.8004 27.4119 14.2564C27.9719 13.6964 28.4039 13.0244 28.7079 12.2404C29.0119 11.4564 29.1639 10.5764 29.1639 9.60035C29.1639 8.62435 29.0119 7.74435 28.7079 6.96035C28.4039 6.17635 27.9719 5.51235 27.4119 4.96835C26.8519 4.40835 26.1799 3.98435 25.3959 3.69635C24.6119 3.39235 23.7479 3.24035 22.8039 3.24035H18.8919V1.20035H22.8039C24.4359 1.20035 25.8839 1.55235 27.1479 2.25635C28.4119 2.96035 29.4039 3.94435 30.1239 5.20835C30.8439 6.45635 31.2039 7.92035 31.2039 9.60035C31.2039 11.2804 30.8439 12.7524 30.1239 14.0164C29.4039 15.2644 28.4119 16.2404 27.1479 16.9444C25.8839 17.6484 24.4359 18.0004 22.8039 18.0004Z" fill="#F5F5F5"/>
<path d="M36.4044 6.64835L35.1564 18.0004H33.1164L35.1564 0.360352L41.8764 12.5284L48.5964 0.360352L50.6364 18.0004H48.5964L47.3484 6.64835L41.8764 16.4404L36.4044 6.64835Z" fill="#F5F5F5"/>
<path d="M53.5061 1.20035H55.5461V18.0004H53.5061V1.20035Z" fill="#F5F5F5"/>
<path d="M72.1089 1.20035H74.1489V18.8404L61.4289 5.49635V18.0004H59.3889V0.360352L72.1089 13.7044V1.20035Z" fill="#F5F5F5"/>
</svg>
