<svg width="30" height="30" viewBox="0 0 30 30" fill="none" xmlns="http://www.w3.org/2000/svg">
<path d="M0.292893 28.2929C-0.0976311 28.6834 -0.0976311 29.3166 0.292893 29.7071C0.683418 30.0976 1.31658 30.0976 1.70711 29.7071L0.292893 28.2929ZM30 0.999999C30 0.447716 29.5523 1.03477e-06 29 -5.66806e-07L20 -1.11471e-06C19.4477 -1.0319e-07 19 0.447714 19 1C19 1.55229 19.4477 2 20 2L28 2L28 10C28 10.5523 28.4477 11 29 11C29.5523 11 30 10.5523 30 10L30 0.999999ZM1 29L1.70711 29.7071L29.7071 1.70711L29 1L28.2929 0.292893L0.292893 28.2929L1 29Z" fill="#FB86A0"/>
</svg>
