<svg width="17" height="17" viewBox="0 0 17 17" fill="none" xmlns="http://www.w3.org/2000/svg">
<path d="M0.792893 14.7929C0.402369 15.1834 0.402369 15.8166 0.792893 16.2071C1.18342 16.5976 1.81658 16.5976 2.20711 16.2071L0.792893 14.7929ZM16.5 1.5C16.5 0.947715 16.0523 0.5 15.5 0.5L6.5 0.5C5.94772 0.5 5.5 0.947715 5.5 1.5C5.5 2.05228 5.94772 2.5 6.5 2.5H14.5V10.5C14.5 11.0523 14.9477 11.5 15.5 11.5C16.0523 11.5 16.5 11.0523 16.5 10.5L16.5 1.5ZM1.5 15.5L2.20711 16.2071L16.2071 2.20711L15.5 1.5L14.7929 0.792893L0.792893 14.7929L1.5 15.5Z" fill="#5771FC"/>
</svg>
