<svg width="93" height="16" viewBox="0 0 93 16" fill="none" xmlns="http://www.w3.org/2000/svg">
<path d="M1 7C0.447715 7 4.82823e-08 7.44772 0 8C-4.82823e-08 8.55228 0.447715 9 1 9L1 7ZM92.7071 8.70711C93.0976 8.31659 93.0976 7.68343 92.7071 7.2929L86.3431 0.92894C85.9526 0.538415 85.3195 0.538415 84.9289 0.92894C84.5384 1.31946 84.5384 1.95263 84.9289 2.34315L90.5858 8.00001L84.9289 13.6569C84.5384 14.0474 84.5384 14.6806 84.9289 15.0711C85.3195 15.4616 85.9526 15.4616 86.3431 15.0711L92.7071 8.70711ZM1 8L1 9L92 9.00001L92 8.00001L92 7.00001L1 7L1 8Z" fill="#FFF3E3"/>
</svg>
