<svg width="20" height="20" viewBox="0 0 20 20" fill="none" xmlns="http://www.w3.org/2000/svg">
<path d="M6.83994 14.5078L17.8013 2.42762C18.0599 2.14254 18.3617 2 18.7066 2C19.0515 2 19.3533 2.14254 19.612 2.42762C19.8707 2.7127 20 3.05146 20 3.44392C20 3.83638 19.8707 4.17467 19.612 4.4588L7.7453 17.5724C7.48663 17.8575 7.18484 18 6.83994 18C6.49505 18 6.19326 17.8575 5.93459 17.5724L0.373088 11.4432C0.114414 11.1581 -0.00975003 10.8198 0.00059694 10.4283C0.0109439 10.0368 0.145885 9.69805 0.405422 9.41203C0.664958 9.126 0.97235 8.98346 1.3276 8.98441C1.68284 8.98536 1.9898 9.1279 2.24848 9.41203L6.83994 14.5078Z" fill="#5271FF"/>
</svg>
