<svg width="32" height="32" viewBox="0 0 32 32" fill="none" xmlns="http://www.w3.org/2000/svg">
<path d="M16 16C14.8667 16 13.9169 15.6169 13.1507 14.8507C12.3844 14.0845 12.0009 13.1342 12 12C12 10.8889 12.3836 9.94447 13.1507 9.16669C13.9178 8.38891 14.8676 8.00002 16 8.00002C17.1111 8.00002 18.0556 8.38891 18.8333 9.16669C19.6111 9.94447 20 10.8889 20 12C20 13.1334 19.6111 14.0836 18.8333 14.8507C18.0556 15.6178 17.1111 16.0009 16 16ZM16 13.3334C16.3778 13.3334 16.6947 13.2054 16.9507 12.9494C17.2067 12.6934 17.3342 12.3769 17.3333 12C17.3324 11.6231 17.2044 11.3067 16.9493 11.0507C16.6942 10.7947 16.3778 10.6667 16 10.6667C15.6222 10.6667 15.3058 10.7947 15.0507 11.0507C14.7956 11.3067 14.6676 11.6231 14.6667 12C14.6658 12.3769 14.7938 12.6938 15.0507 12.9507C15.3076 13.2076 15.624 13.3351 16 13.3334ZM8 24V21.4667C8 21 8.11689 20.5614 8.35067 20.1507C8.58445 19.74 8.90089 19.412 9.3 19.1667C10.3222 18.5667 11.3947 18.1111 12.5173 17.8C13.64 17.4889 14.8009 17.3334 16 17.3334C17.1991 17.3334 18.3604 17.4889 19.484 17.8C20.6076 18.1111 21.6796 18.5667 22.7 19.1667C23.1 19.4111 23.4169 19.7391 23.6507 20.1507C23.8844 20.5622 24.0009 21.0009 24 21.4667V24H8ZM16 20C15.0889 20 14.2 20.1111 13.3333 20.3334C12.4667 20.5556 11.6444 20.8889 10.8667 21.3334H21.1333C20.3556 20.8889 19.5333 20.5556 18.6667 20.3334C17.8 20.1111 16.9111 20 16 20ZM16 21.3334H21.1333H10.8667H16ZM5.33333 29.3334C4.6 29.3334 3.97245 29.0725 3.45067 28.5507C2.92889 28.0289 2.66756 27.4009 2.66667 26.6667V21.3334H5.33333V26.6667H10.6667V29.3334H5.33333ZM2.66667 10.6667V5.33335C2.66667 4.60002 2.928 3.97246 3.45067 3.45069C3.97333 2.92891 4.60089 2.66758 5.33333 2.66669H10.6667V5.33335H5.33333V10.6667H2.66667ZM21.3333 29.3334V26.6667H26.6667V21.3334H29.3333V26.6667C29.3333 27.4 29.0724 28.028 28.5507 28.5507C28.0289 29.0734 27.4009 29.3342 26.6667 29.3334H21.3333ZM26.6667 10.6667V5.33335H21.3333V2.66669H26.6667C27.4 2.66669 28.028 2.92802 28.5507 3.45069C29.0733 3.97335 29.3342 4.60091 29.3333 5.33335V10.6667H26.6667Z" fill="black"/>
</svg>
