<svg width="61" height="61" viewBox="0 0 61 61" fill="none" xmlns="http://www.w3.org/2000/svg">
<path d="M45.0439 19.8339C44.9557 21.0678 44.2515 25.3867 43.5454 30.0587C42.4882 36.6707 41.3427 43.8982 41.3427 43.8982C41.3427 43.8982 41.1662 45.9265 39.6677 46.2777C38.1691 46.6311 35.7016 45.0438 35.2603 44.6926C34.9073 44.4283 28.6484 40.4601 26.3575 38.5223C25.7397 37.9929 25.0354 36.9357 26.4457 35.7018C29.6193 32.7908 33.4088 29.1782 35.7017 26.8855C36.7589 25.8283 37.8161 23.3605 33.4088 26.3577C27.1499 30.6763 20.9793 34.7308 20.9793 34.7308C20.9793 34.7308 19.5691 35.6135 16.9251 34.819C14.2811 34.0269 11.1957 32.9675 11.1957 32.9675C11.1957 32.9675 9.0794 31.6453 12.6942 30.2354C12.6942 30.2354 27.9443 23.9768 33.2323 21.7739C35.2604 20.8911 42.1352 18.0708 42.1352 18.0708C42.1352 18.0708 45.3087 16.8369 45.0439 19.8339ZM30.5 0C13.6559 0 0 13.6558 0 30.5004C0 47.3443 13.6559 61 30.5 61C47.3442 61 61 47.3443 61 30.5004C61 13.6558 47.3442 0 30.5 0Z" fill="#5871FC"/>
</svg>
