<svg width="61" height="61" viewBox="0 0 61 61" fill="none" xmlns="http://www.w3.org/2000/svg">
<g clip-path="url(#clip0_5024_5127)">
<path d="M30.5 0C13.6559 0 0 13.6553 0 30.5C0 47.3447 13.6559 61 30.5 61C47.3441 61 61 47.3447 61 30.5C61 13.6553 47.3441 0 30.5 0ZM45.9712 33.7987C47.3928 35.1872 48.8967 36.4939 50.1729 38.0259C50.7383 38.7036 51.2712 39.4044 51.6768 40.1926C52.2559 41.3165 51.733 42.549 50.727 42.6158L44.4785 42.6145C42.8647 42.7481 41.5805 42.0972 40.4978 40.9939C39.6335 40.1146 38.8316 39.1754 37.9991 38.2662C37.659 37.893 37.3008 37.5417 36.874 37.2652C36.0221 36.7111 35.282 36.8808 34.794 37.7707C34.2967 38.6762 34.1831 39.6796 34.1357 40.6875C34.0676 42.1608 33.6233 42.5459 32.145 42.6151C28.9861 42.763 25.9888 42.2838 23.2031 40.6912C20.7456 39.2865 18.8435 37.3039 17.1861 35.0592C13.9585 30.6835 11.4867 25.8808 9.26576 20.9403C8.7659 19.8277 9.13159 19.2323 10.3591 19.2092C12.3984 19.1699 14.4378 19.1749 16.4772 19.2074C17.3071 19.2205 17.8563 19.6954 18.1752 20.4785C19.2772 23.19 20.6283 25.7698 22.3213 28.1623C22.7725 28.7995 23.233 29.4348 23.8889 29.8847C24.6128 30.3814 25.1644 30.2173 25.5058 29.4092C25.7242 28.8956 25.8184 28.3464 25.8659 27.796C26.0281 25.9108 26.0475 24.0262 25.7666 22.1485C25.5919 20.9734 24.9311 20.2146 23.7597 19.9924C23.1632 19.8794 23.2505 19.6585 23.5407 19.3178C24.0443 18.7287 24.5161 18.3643 25.459 18.3643L32.5188 18.363C33.6314 18.5814 33.8811 19.0807 34.0321 20.2015L34.0383 28.0469C34.0252 28.4806 34.2561 29.7661 35.0349 30.0501C35.6589 30.256 36.0708 29.7555 36.444 29.3605C38.137 27.5639 39.3433 25.4434 40.4235 23.2486C40.9003 22.2808 41.3115 21.2792 41.7109 20.2757C42.0079 19.5337 42.4697 19.1687 43.3072 19.1811L50.1055 19.1893C50.3058 19.1893 50.5093 19.1911 50.7077 19.2255C51.8534 19.4214 52.1673 19.9144 51.8129 21.032C51.255 22.7881 50.171 24.2509 49.1114 25.7173C47.9756 27.2874 46.7644 28.8026 45.6399 30.3796C44.6064 31.8211 44.6882 32.5469 45.9712 33.7987Z" fill="#5871FC"/>
</g>
<defs>
<clipPath id="clip0_5024_5127">
<rect width="61" height="61" fill="white"/>
</clipPath>
</defs>
</svg>
