<svg width="63" height="62" viewBox="0 0 63 62" fill="none" xmlns="http://www.w3.org/2000/svg">
<path d="M40.571 35.6465C40.0195 36.9855 38.6472 37.8472 37.2564 38.1105C35.9287 38.363 34.8331 37.94 33.6038 37.5332C32.5064 37.1712 31.4461 36.6439 30.4637 36.0404C28.4954 34.8348 26.7945 33.2215 25.4296 31.3661C25.0118 30.7981 24.6237 30.2092 24.269 29.6005C23.7955 28.7946 23.3759 27.9475 23.1568 27.0393C23.0658 26.6606 23.0175 26.2712 23.0119 25.8787C22.997 24.5027 23.5225 23.1145 24.6107 22.228C25.242 21.7138 26.1742 21.4896 26.8817 21.89C27.6523 22.3253 28.0516 23.4205 28.4081 24.1894C28.6867 24.7907 29.0042 25.5821 28.8891 26.2581C28.7739 26.9319 28.2392 27.502 27.8121 28.0034C27.5261 28.3413 27.4815 28.6294 27.721 28.995C29.1305 31.3436 31.0877 33.0503 33.6428 34.0681C33.9901 34.2074 34.2593 34.1645 34.4859 33.8839C34.9278 33.3398 35.3623 32.2764 36.042 31.9978C36.9296 31.6337 37.9082 32.1371 38.6622 32.5883C39.3622 33.0061 40.5358 33.5218 40.7252 34.3873C40.8162 34.8072 40.7344 35.2489 40.571 35.6465ZM31.8564 15.2093C23.6767 15.2093 17.0215 21.8623 17.0215 30.0438C17.0215 32.7443 17.7717 35.4034 19.1922 37.7356L19.5766 38.3665L18.0948 43.8989L23.6563 42.4076L24.2839 42.7805C26.5865 44.1528 29.2047 44.8789 31.8564 44.8789C40.0362 44.8789 46.6915 38.2237 46.6915 30.0438C46.6915 21.8623 40.0362 15.2093 31.8564 15.2093Z" fill="#5871FC"/>
<path d="M31.8557 48.3385C28.8289 48.3385 25.8374 47.5732 23.1616 46.1211L13.2029 48.7897L15.8583 38.8827C14.3542 36.1697 13.5631 33.1305 13.5631 30.0456C13.5631 19.9587 21.7707 11.7511 31.8557 11.7511C41.9426 11.7511 50.1502 19.9587 50.1502 30.0456C50.1502 40.1309 41.9426 48.3385 31.8557 48.3385ZM31.2188 0.394108C14.2075 0.394108 0.416016 14.1855 0.416016 31.1974C0.416016 48.2087 14.2075 62 31.2188 62C48.2302 62 62.0216 48.2087 62.0216 31.1974C62.0216 14.1855 48.2302 0.394108 31.2188 0.394108Z" fill="#5871FC"/>
</svg>
