<svg width="63" height="62" viewBox="0 0 63 62" fill="none" xmlns="http://www.w3.org/2000/svg">
<path d="M40.5701 35.2539C40.0186 36.593 38.6463 37.4546 37.2554 37.7179C35.9277 37.9704 34.8321 37.5474 33.6029 37.1406C32.5054 36.7787 31.4451 36.2513 30.4628 35.6478C28.4944 34.4423 26.7935 32.829 25.4286 30.9735C25.0108 30.4055 24.6227 29.8167 24.2681 29.208C23.7945 28.402 23.3749 27.5549 23.1558 26.6467C23.0648 26.2681 23.0165 25.8787 23.0109 25.4861C22.9961 24.1101 23.5216 22.7219 24.6097 21.8354C25.2411 21.3212 26.1732 21.0971 26.8807 21.4974C27.6514 21.9327 28.0506 23.0279 28.4072 23.7969C28.6857 24.3981 29.0032 25.1896 28.8881 25.8655C28.773 26.5394 28.2382 27.1094 27.8111 27.6108C27.5251 27.9488 27.4805 28.2368 27.7201 28.6024C29.1295 30.9511 31.0867 32.6578 33.6418 33.6755C33.9891 33.8148 34.2584 33.7719 34.4849 33.4913C34.9268 32.9473 35.3613 31.8838 36.041 31.6052C36.9286 31.2411 37.9073 31.7445 38.6612 32.1958C39.3612 32.6136 40.5348 33.1292 40.7242 33.9947C40.8152 34.4146 40.7335 34.8564 40.5701 35.2539ZM31.8555 14.8167C23.6757 14.8167 17.0205 21.4698 17.0205 29.6512C17.0205 32.3517 17.7707 35.0109 19.1912 37.343L19.5756 37.974L18.0938 43.5064L23.6553 42.015L24.2829 42.3879C26.5855 43.7602 29.2038 44.4863 31.8555 44.4863C40.0352 44.4863 46.6905 37.8312 46.6905 29.6512C46.6905 21.4698 40.0352 14.8167 31.8555 14.8167Z" fill="#0D0D55"/>
<path d="M31.8557 47.9459C28.8289 47.9459 25.8374 47.1807 23.1616 45.7285L13.2029 48.3971L15.8583 38.4901C14.3542 35.7771 13.5631 32.7379 13.5631 29.653C13.5631 19.5661 21.7707 11.3585 31.8557 11.3585C41.9426 11.3585 50.1502 19.5661 50.1502 29.653C50.1502 39.7384 41.9426 47.9459 31.8557 47.9459ZM31.2188 0.00152969C14.2075 0.00152969 0.416016 13.7929 0.416016 30.8048C0.416016 47.8161 14.2075 61.6074 31.2188 61.6074C48.2302 61.6074 62.0216 47.8161 62.0216 30.8048C62.0216 13.7929 48.2302 0.00152969 31.2188 0.00152969Z" fill="#0D0D55"/>
</svg>
